<?xml version="1.0" encoding="UTF-8" standalone="no"?>
<!DOCTYPE svg PUBLIC "-//W3C//DTD SVG 1.1//EN" "http://www.w3.org/Graphics/SVG/1.1/DTD/svg11.dtd">
<svg xmlns="http://www.w3.org/2000/svg" viewBox="0 0 640 640" width="640" height="640" fill="#000000" stroke="currentColor">
    <path d="M220.42 182.59C220.42 207.7 220.42 221.65 220.42 224.44C213.76 228.73 207.56 232.54 201.85 235.88C196.13 239.22 190.17 243.03 183.98 247.33C183.98 266 183.98 415.35 183.98 434.02C178.74 430.21 173.26 426.63 167.55 423.29C162.31 419.48 157.07 415.66 151.83 411.85C151.83 397.9 151.83 286.31 151.83 272.36C141.35 281.42 128.96 292.39 114.67 305.27C114.69 301.67 114.78 283.68 114.94 251.3L220.42 182.59Z" id="b156NBzAem"></path>
    <path d="M250.2 162.69C278.67 144.3 295.94 132.22 321.17 116.86C347.63 133.4 368.63 148.72 392.34 162.88C392.38 171.19 392.57 212.74 392.9 287.52L364.37 317.85L392.9 347.44C392.9 425.43 392.9 468.76 392.9 477.43C363.9 496.33 342.69 509.55 321.23 523.24C279.79 497.25 274.07 491.69 250.33 477.22C250.31 414.31 250.22 225.6 250.2 162.69ZM357.62 361.49L332.09 335.6L286.3 335.6L286.3 462.85C307.92 474.13 319.93 480.4 322.33 481.65C341.44 470.65 343.52 469.94 357.62 462.85C357.62 449.33 357.62 415.55 357.62 361.49ZM357.62 176.73C337.16 163.77 328.72 158.71 321.78 153.82C319.42 155.35 307.59 162.98 286.3 176.73L286.3 300.09L304.32 300.09L332.09 300.09L357.62 273.46C357.62 221.87 357.62 189.63 357.62 176.73Z" id="a9qJES5Db"></path>
    <path d="M421.79 182.28L524.14 249.29C524.14 273.69 524.14 287.24 524.14 289.95C498.51 271.4 477.08 253.72 452.86 235.69C452.86 240.24 452.86 262.98 452.86 303.93L452.86 339.23L452.86 398.75L492.78 373.74L492.78 352.56L465.82 352.56L465.82 318.05L511.36 318.05L523.75 318.05L523.75 342.37L524.14 390.47L421.68 458.04L421.79 182.28Z" id="a2IBnzQ9PQ"></path>
    <path d="M319.94 34.36L33.04 214.01L33.04 427.26L319.94 608.52L608.5 427.26L608.5 214.01L319.94 34.36ZM320.34 43.36L598.62 218.39L598.62 421.29L320.34 596.99L42.06 421.29L42.06 218.39L320.34 43.36Z" id="a1VOhTsgCV"></path>
    <path d="M319.85 0L0 199.24L0 438.8L319.85 640L640 438.8L640 199.24L319.85 0ZM320.29 13.33L628.71 207.31L628.71 432.18L320.29 626.91L11.87 432.18L11.87 207.31L320.29 13.33Z" id="ajyhWB7UU"></path>
</svg>